HIERARCHY
ROOT Hips
{
	OFFSET 0.00000 0.00000 0.00000
	CHANNELS 6 Xposition Yposition Zposition Yrotation Zrotation Xrotation 
	JOINT Lumbar
	{
		OFFSET 0 0 0
		CHANNELS 3 Zrotation Xrotation Yrotation
		JOINT Neck
		{
			OFFSET 0.00 0.2701 0.00
			CHANNELS 3 Zrotation Xrotation Yrotation
			End Site
			{
				OFFSET 0.00 0.1379 0.00
			}
		}
		JOINT RightShoulder
		{
			OFFSET 0.0119 0.2289 0.1181
			CHANNELS 3 Zrotation Xrotation Yrotation
			JOINT RightElbow
			{
				OFFSET 0.00 -0.1475 0.00
				CHANNELS 2 Zrotation Yrotation
				JOINT RightWrist
				{
					OFFSET 0.00 -0.1605 0.00
					CHANNELS 2 Zrotation Xrotation
					End Site
					{
						OFFSET 0.0040 -0.1068 0.0006
					}
				}
			}
		}
		JOINT LeftShoulder
		{
			OFFSET 0.0119 0.2289 -0.1181
			CHANNELS 3 Zrotation Xrotation Yrotation
			JOINT LeftElbow
			{
				OFFSET 0.00 -0.1475 0.00
				CHANNELS 2 Zrotation Yrotation
				JOINT LeftWrist
				{
					OFFSET 0.00 -0.1605 0.00
					CHANNELS 2 Zrotation Xrotation
					End Site
					{
						OFFSET 0.0040 -0.1068 -0.0006
					}
				}
			}
		}
	}
	JOINT RightHip
	{
		OFFSET 0.0316 -0.0424 0.0458
		CHANNELS 3 Zrotation Xrotation Yrotation
		JOINT RightKnee
		{
			OFFSET 0.00 -0.2438 0.00
			CHANNELS 1 Zrotation
			JOINT RightAnkle
			{
				OFFSET 0.00 -0.2449 0.00
				CHANNELS 3 Zrotation Xrotation Yrotation
				End Site
				{
					OFFSET 0.1237 -0.0542 0.0051
				}
			}
		}
	}
	JOINT LeftHip
	{
		OFFSET 0.0316 -0.0424 -0.0458
		CHANNELS 3 Zrotation Xrotation Yrotation
		JOINT LeftKnee
		{
			OFFSET 0.00 -0.2438 0.00
			CHANNELS 1 Zrotation
			JOINT LeftAnkle
			{
				OFFSET 0.00 -0.2449 0.00
				CHANNELS 3 Zrotation Xrotation Yrotation
				End Site
				{
					OFFSET 0.1237 -0.0542 -0.0051
				}
			}
		}
	}
}
MOTION
Frames: 25
Frame Time: 0.02
-0.00287 -0.0003 -0.00601 15.51072 -20.49126 -5.42463 48.40009 3.936 -1.016 -8.56348 -0.5574 -0.40935 -24.65871 -14.14968 -0.3167 31.89893 93.35294 9.34979 -0.20245 -28.80789 18.48939 -9.6012 47.70014 -131.06657 24.38185 -4.45679 36.32828 -1.72009 -3.39855 -21.00181 -8.63712 -4.84407 -3.30805 36.12272 9.6524 1.0954 -26.71809 -9.64373 5.32318 3.66525
-0.00196 -0.0003 -0.00426 15.41263 -20.53523 -5.39992 48.3111 3.87216 -1.5813 -8.7824 -0.67287 -0.41052 -24.72506 -13.76435 -0.47733 32.31678 93.26657 9.21551 -0.17921 -29.1633 18.45716 -9.12606 47.35863 -128.07672 23.46622 -4.04478 36.35554 -1.61028 -3.81019 -21.07635 -8.57564 -4.79762 -3.27887 36.09539 9.9104 1.3481 -26.70608 -9.63872 5.30182 3.65228
-0.00106 -0.00029 -0.00252 15.31485 -20.57918 -5.37529 48.22213 3.80847 -2.14507 -9.00099 -0.7879 -0.41171 -24.79159 -13.37983 -0.63755 32.73409 93.18006 9.08131 -0.1561 -29.51805 18.42521 -8.65135 47.0189 -125.09584 22.55338 -3.634 36.3828 -1.50044 -4.22076 -21.15066 -8.5143 -4.7513 -3.24977 36.06827 10.16793 1.59955 -26.69403 -9.63385 5.28054 3.63937
-0.00015 -0.00029 -0.00077 15.21705 -20.62303 -5.35066 48.13338 3.74481 -2.70867 -9.21928 -0.903 -0.41288 -24.85779 -12.99561 -0.79766 33.15077 93.09389 8.94738 -0.13294 -29.87245 18.39312 -8.17757 46.67857 -122.11518 21.64057 -3.22326 36.41 -1.3909 -4.63116 -21.22497 -8.453 -4.70499 -3.22068 36.04104 10.42519 1.8514 -26.68205 -9.62887 5.25925 3.62644
0.00076 -0.00028 0.00097 15.11897 -20.66686 -5.32596 48.0447 3.68105 -3.2737 -9.43777 -1.01854 -0.41403 -24.92367 -12.61074 -0.95822 33.56772 93.008 8.8135 -0.10962 -30.22729 18.36063 -7.70356 46.33617 -119.12559 20.72498 -2.8113 36.43716 -1.28155 -5.04259 -21.29949 -8.39158 -4.65856 -3.19151 36.01357 10.68281 2.10466 -26.67013 -9.62371 5.23787 3.61345
0.00166 -0.00028 0.00272 15.02185 -20.71105 -5.30148 47.95511 3.6175 -3.83475 -9.6566 -1.13252 -0.41531 -24.9916 -12.22702 -1.11778 33.98575 92.92019 8.67866 -0.08696 -30.58182 18.3298 -7.22729 46.00206 -116.16315 19.81795 -2.40301 36.46462 -1.17069 -5.45136 -21.37336 -8.33041 -4.61245 -3.16254 35.98718 10.94013 2.35232 -26.6578 -9.61946 5.21681 3.60069
0.00257 -0.00028 0.00445 14.92282 -20.75447 -5.27658 47.86751 3.55356 -4.40323 -9.87444 -1.24951 -0.41632 -25.05526 -11.84134 -1.27895 34.4011 92.83634 8.54584 -0.063 -30.93665 18.29579 -6.7566 45.65169 -113.14965 18.89479 -1.98782 36.49146 -1.06297 -5.86493 -21.44847 -8.26881 -4.56577 -3.13321 35.95862 11.19775 2.61094 -26.64631 -9.61338 5.19513 3.58748
0.00347 -0.00027 0.0062 14.82572 -20.79859 -5.25205 47.77794 3.49002 -4.9648 -10.09329 -1.36371 -0.41758 -25.123 -11.4576 -1.43905 34.81902 92.74887 8.41127 -0.04024 -31.2911 18.26449 -6.27986 45.31625 -110.18268 17.98633 -1.57892 36.51884 -0.95238 -6.27426 -21.52242 -8.20759 -4.5196 -3.1042 35.93212 11.45513 2.85953 -26.63406 -9.60899 5.17401 3.57468
0.00438 -0.00027 0.00798 14.73025 -20.84364 -5.22805 47.68642 3.42677 -5.51843 -10.31313 -1.4746 -0.41915 -25.19524 -11.07545 -1.59626 35.24 92.65676 8.274 -0.01894 -31.64573 18.23739 -5.79894 44.99929 -107.27351 17.09614 -1.17785 36.54707 -0.83808 -6.67784 -21.59503 -8.14687 -4.47406 -3.07561 35.90791 11.71225 3.09556 -26.6208 -9.60665 5.15363 3.56241
0.00528 -0.00026 0.00962 14.62319 -20.88359 -5.20122 47.60748 3.36125 -6.1193 -10.52655 -1.60486 -0.41896 -25.24015 -10.68178 -1.76536 35.64314 92.59065 8.15056 0.01078 -32.00129 18.18878 -5.35168 44.57668 -104.03445 16.1017 -0.73213 36.57098 -0.74451 -7.11284 -21.6756 -8.08337 -4.42492 -3.04468 35.86982 11.97096 3.40296 -26.61312 -9.59247 5.12917 3.54718
0.00619 -0.00026 0.01154 14.54204 -20.93411 -5.18022 47.50116 3.30094 -6.61946 -10.75395 -1.69404 -0.42247 -25.34358 -10.31399 -1.91238 36.08398 92.47019 7.9991 0.02273 -32.35353 18.18386 -4.82741 44.37651 -101.48997 15.32672 -0.38041 36.60362 -0.60763 -7.48257 -21.7392 -8.0257 -4.38337 -3.01867 35.86144 12.22622 3.56038 -26.59381 -9.60329 5.11319 3.53814
0.00715 -0.00026 0.01423 14.52112 -21.01529 -5.17643 47.32535 3.25171 -6.84912 -11.01676 -1.67114 -0.4364 -25.60269 -10.00597 -1.9736 36.62961 92.19503 7.76085 -0.01448 -32.70803 18.3149 -4.13976 44.79685 -100.88152 15.16446 -0.29071 36.66335 -0.34731 -7.66274 -21.75724 -7.98441 -4.36286 -3.00638 35.93247 12.4726 3.29761 -26.54175 -9.68334 5.12163 3.54676
0.0081 -0.00027 0.0172 14.52847 -21.10665 -5.17815 47.12064 3.2084 -6.97643 -11.29423 -1.60689 -0.454 -25.92164 -9.72676 -2.01726 37.21308 91.86653 7.49663 -0.06947 -33.05706 18.4875 -3.36689 45.43876 -100.96529 15.22105 -0.29464 36.73117 -0.04451 -7.77901 -21.758 -7.94895 -4.34996 -2.99901 36.03397 12.71519 2.88621 -26.4786 -9.7884 5.13835 3.56146
0.00905 -0.00028 0.02004 14.52971 -21.19243 -5.17669 46.9259 3.16434 -7.14696 -11.5668 -1.56111 -0.46975 -26.21623 -9.44078 -2.08547 37.77812 91.56576 7.25033 -0.11601 -33.40122 18.62973 -2.60043 45.9726 -100.71223 15.17004 -0.25306 36.79335 0.23608 -7.93174 -21.76607 -7.91049 -4.33338 -2.98917 36.12259 12.95943 2.54797 -26.42055 -9.88158 5.15058 3.57296
0.01003 -0.00029 0.02289 14.50166 -21.28279 -5.17855 46.74593 3.11167 -7.33182 -11.83165 -1.5165 -0.48627 -26.49836 -9.12514 -2.08395 38.34762 91.24924 6.97674 -0.16403 -33.77656 18.81777 -1.96611 46.53771 -100.55305 15.152 -0.22419 36.86421 0.52972 -8.05429 -21.77658 -7.87333 -4.31758 -2.98019 36.20617 13.20487 2.18414 -26.3605 -9.97688 5.166 3.58639
0.01094 -0.00029 0.02578 14.54245 -21.36533 -5.17424 46.52651 3.07889 -7.46179 -12.11646 -1.45978 -0.50207 -26.82141 -8.8819 -2.22321 38.91786 90.95401 6.7556 -0.21333 -34.08548 18.92369 -1.04155 47.0906 -100.36421 15.1195 -0.191 36.91842 0.80536 -8.22296 -21.77768 -7.83508 -4.30217 -2.97074 36.30875 13.44576 1.84038 -26.30416 -10.07379 5.1766 3.59716
0.01171 -0.00027 0.02874 14.75673 -21.42997 -5.15628 46.22066 3.09481 -7.47185 -12.44914 -1.37841 -0.51491 -27.23564 -8.79975 -2.75922 39.47094 90.72082 6.671 -0.26053 -34.21442 18.76432 0.70692 47.55159 -99.9062 14.97315 -0.12296 36.92909 1.02796 -8.54804 -21.75892 -7.79033 -4.28412 -2.95754 36.44675 13.684 1.57144 -26.24374 -10.16829 5.1732 3.5997
0.0124 -0.00025 0.03171 15.04108 -21.4854 -5.13097 45.87309 3.1315 -7.4288 -12.80189 -1.28634 -0.52691 -27.69014 -8.79586 -3.43752 40.0248 90.51247 6.64291 -0.3087 -34.27675 18.5271 2.73563 47.99343 -99.39762 14.80885 -0.04729 36.92211 1.22949 -8.91898 -21.73086 -7.74472 -4.26658 -2.94395 36.60568 13.91548 1.33082 -26.1918 -10.26376 5.16448 3.59927
0.01309 -0.00023 0.03465 15.29976 -21.54079 -5.10606 45.53467 3.16171 -7.40603 -13.14814 -1.20025 -0.53934 -28.13114 -8.77638 -4.0474 40.58549 90.2995 6.59843 -0.35717 -34.36761 18.34289 4.60866 48.44639 -98.92365 14.66554 0.02489 36.92004 1.43624 -9.26045 -21.7059 -7.70079 -4.24999 -2.93135 36.75996 14.14496 1.08867 -26.14567 -10.35912 5.15721 3.5997
0.01393 -0.0002 0.03769 15.53351 -21.61372 -5.09408 45.23723 3.17933 -7.39679 -13.4847 -1.10874 -0.55167 -28.55469 -8.67165 -4.66972 41.11931 90.05758 6.51344 -0.40284 -34.46376 18.08176 6.60757 48.89637 -98.42458 14.47398 0.09381 36.9305 1.66353 -9.63716 -21.68538 -7.65137 -4.22856 -2.91541 36.89037 14.3983 0.79432 -26.05351 -10.45358 5.15398 3.60218
0.01443 -0.0002 0.04051 15.83528 -21.64863 -5.05292 44.84417 3.22837 -7.34705 -13.84493 -1.0256 -0.56396 -29.02247 -8.76512 -5.30368 41.70609 89.88123 6.52706 -0.4547 -34.53548 17.96674 8.40557 49.34577 -97.95701 14.37796 0.17267 36.91166 1.84163 -9.95088 -21.65324 -7.6134 -4.21737 -2.90634 37.08058 14.59713 0.61625 -26.06546 -10.55031 5.14141 3.5999
0.014 -0.00033 0.04276 16.30904 -21.57413 -4.93648 44.20388 3.35619 -7.20778 -14.2746 -0.97621 -0.5765 -29.60905 -9.36684 -5.90614 42.46077 89.89171 6.79513 -0.52002 -34.53669 18.23231 9.61572 49.79049 -97.58309 14.53 0.27649 36.80754 1.89591 -10.09156 -21.59479 -7.60471 -4.23308 -2.91559 37.38367 14.67529 0.76545 -26.3093 -10.64778 5.10003 3.58239
0.01322 -0.0005 0.04476 16.84826 -21.46329 -4.79016 43.46799 3.51541 -7.02839 -14.72539 -0.93441 -0.58898 -30.23663 -10.16935 -6.52174 43.26369 89.96547 7.16117 -0.59199 -34.51973 18.65549 10.60737 50.23495 -97.24008 14.78107 0.39057 36.67657 1.8997 -10.16566 -21.52443 -7.60801 -4.25921 -2.93184 37.75492 14.69387 1.03092 -26.66644 -10.74776 5.04985 3.56044
0.01257 -0.00065 0.04684 17.35675 -21.37291 -4.65528 42.7713 3.66212 -6.86173 -15.16085 -0.88399 -0.60136 -30.84158 -10.89225 -7.14926 44.03096 90.00268 7.4854 -0.66318 -34.52316 19.03341 11.67481 50.68432 -96.88331 14.99943 0.5009 36.56299 1.92218 -10.26217 -21.45725 -7.60751 -4.28141 -2.94538 38.12564 14.72087 1.23288 -27.00841 -10.8507 5.00693 3.54264
0.01204 -0.00082 0.04907 17.87263 -21.2639 -4.52948 42.08989 3.80214 -6.71626 -15.62225 -0.85465 -0.61424 -31.46727 -11.56687 -7.70272 44.85934 90.07331 7.801 -0.72532 -34.47105 19.29619 12.8496 51.11563 -96.52451 15.16704 0.60785 36.42509 1.96283 -10.39197 -21.39898 -7.60012 -4.30049 -2.95702 38.36838 14.82518 1.47287 -27.20239 -10.93886 4.95149 3.51672
